nColumns=46
nRows=11
DataType=double
version=3
OpenSimVersion=4.5
endheader
time	ground_force_1_vx	ground_force_1_vy	ground_force_1_vz	ground_force_1_px	ground_force_1_py	ground_force_1_pz	ground_moment_1_mx	ground_moment_1_my	ground_moment_1_mz	ground_force_2_vx	ground_force_2_vy	ground_force_2_vz	ground_force_2_px	ground_force_2_py	ground_force_2_pz	ground_moment_2_mx	ground_moment_2_my	ground_moment_2_mz	ground_force_3_vx	ground_force_3_vy	ground_force_3_vz	ground_force_3_px	ground_force_3_py	ground_force_3_pz	ground_moment_3_mx	ground_moment_3_my	ground_moment_3_mz	ground_force_4_vx	ground_force_4_vy	ground_force_4_vz	ground_force_4_px	ground_force_4_py	ground_force_4_pz	ground_moment_4_mx	ground_moment_4_my	ground_moment_4_mz	ground_force_5_vx	ground_force_5_vy	ground_force_5_vz	ground_force_5_px	ground_force_5_py	ground_force_5_pz	ground_moment_5_mx	ground_moment_5_my	ground_moment_5_mz
1.078	2.212829713243991	9.991923099732958	0.4387735680211334	264.0045146062456	1.616561418864947e-14	-249.8910392873321	-1.366074742690645e-14	223.096935972357	8.364795305160714e-31	1.327674799540545	9.290735513786785	-0.2632665637065657	869.7077376258317	5.325423985385804e-14	-233.0007451838975	4.632114189980511e-15	-75.64816554790443	-2.836351908022334e-31	1.327674799540545	10.34251689270604	-1.491843861003872	1510.327518128769	9.248088803702814e-14	-267.26399221066	4.859984301331521e-15	-79.36956687781704	-2.975882109266017e-31	0.9736281863297325	13.84845482243691	-4.300020540540572	541.8259555323775	3.317727110688411e-14	-619.0432277101412	-1.341051696908089e-14	219.0103624721481	8.211573340548088e-31	1.327674799540545	8.940141720813699	-5.704108880308922	1183.736571518719	7.248296016720308e-14	-652.9272199238944	-2.834522520221901e-14	462.9126572976643	1.73564446575042e-30
1.0785	2.035803336184471	12.09548585757148	-0.08775471360422683	263.1526700243919	1.611345375162256e-14	-235.9740583087089	-7.164153737490543e-14	241.6716154306767	5.684341886080801e-14	1.327674799540545	9.991923099732958	-0.7897996911196971	863.5404688651229	5.287660355649387e-14	-240.4636238634064	2.621538362825654e-15	-42.81297047688967	-1.605229282438215e-31	1.858744719356763	11.3942982716253	-1.667354903474916	1517.724400452426	9.293381645009495e-14	-280.8789338527341	1.903267444688606e-15	-31.08271619235416	-1.165415192029632e-31	0.4425582665135142	13.49786102946382	-3.948998455598485	543.357702344586	3.327106354841787e-14	-624.1739820460157	-9.12591017987189e-15	149.03742346325	5.588008345543178e-31	0.9736281863297328	7.187172755948268	-5.353086795366835	1190.371442008364	7.288922881259813e-14	-660.5241483998004	-1.83401300440167e-14	299.5170535175663	1.123009077717563e-30
1.079	0.9736450738273554	9.991923099732958	-0.7897924224380405	268.043348997778	1.641292146914328e-14	-263.0347227025505	-1.541919405025537e-14	251.8145486680863	9.441533319538574e-31	1.327674799540545	9.991923099732958	-0.6142886486486533	884.9748271483278	5.418907946965909e-14	-246.8773790785922	1.008497989431128e-14	-164.7002205261604	-6.17526917351686e-31	2.035768025962169	13.49786102946382	-2.018376988417003	1519.408537802865	9.303694012087196e-14	-273.1002867195599	1.654456893076229e-16	-2.701933152037185	-1.013062669216539e-32	0.6195815731189204	13.14726723649073	-3.948998455598485	558.1109493288028	3.417443938323045e-14	-627.1811984961182	-1.264263676337576e-14	206.4699270381967	7.741382322525387e-31	1.504698106145951	9.290735513786785	-5.002064710424747	1138.472981134976	6.971136461313469e-14	-706.3767993810141	-4.001688384386409e-14	653.5253082231612	2.450327435561979e-30
1.0795	1.504724205005914	8.940141720813699	-0.7897924224380405	245.2377127687618	1.501647899862411e-14	-252.4316268193608	-1.534705366963424e-14	250.6364068451321	9.397360076430107e-31	0.6195815731189207	9.290735513786785	-1.140821776061784	883.386535085227	5.409182463009971e-14	-278.2710169661382	3.458332749509821e-15	-56.47885989523914	-2.117618066036834e-31	1.504698106145951	11.3942982716253	-1.491843861003872	1506.384485879281	9.223944694586461e-14	-252.5722431488331	6.284537489989237e-16	-10.26342859731439	-3.84816936061843e-32	0.08851165330270205	12.79667344351765	-3.597976370656397	553.4782249901156	3.389076683159518e-14	-625.2629010944675	-1.642882368174966e-14	268.303051838098	1.005975316780547e-30	1.327674799540545	9.991923099732958	-4.65104262548266	1138.819238925277	6.973256678786327e-14	-699.0520259775183	-3.677230874604176e-14	600.5373757012076	1.13686837721616e-13
1.08	1.150671450886875	9.290735513786785	0.08775471360422664	261.0592252917112	1.598526723206909e-14	-229.4573843817775	-1.647784420965479e-14	269.1036178125368	1.008976958410125e-30	0.6195815731189207	8.238954134867527	-1.140821776061784	870.3570849076588	5.329400090736927e-14	-268.7105887861138	-6.080871041955011e-15	99.30816046208182	3.723459628779018e-31	1.504698106145951	11.74489206459839	-1.491843861003872	1502.785670115294	9.201908303556026e-14	-270.2052018124675	-1.324928356387098e-15	21.63772211399345	7.105427357601002e-15	-0.08851165330270405	12.44607965054456	-3.773487413127441	552.0829679900567	3.380533198063968e-14	-633.6756899056701	-1.249314026865748e-14	204.0284640004887	7.649842120655141e-31	0.7966048797243266	8.589547927840613	-4.826553667953704	1152.824407141433	7.059013600923507e-14	-699.7713253663217	-3.025604971109066e-14	494.1187897139991	1.852648721676519e-30
1.0805	1.327697827946394	9.290735513786785	-0.9653018496464939	233.4348786019879	1.429376384446378e-14	-243.5552623036402	-2.658290887736039e-14	434.1318475803546	1.13686837721616e-13	1.504698106145951	8.940141720813699	-1.316332818532828	858.8201259273808	5.258756591301468e-14	-245.3418409789602	-5.904280216110759e-14	35.91865510661319	-5.684341886080801e-14	1.327674799540545	12.09548585757148	-1.84286594594596	1499.36621038133	9.180970151465963e-14	-268.2283102595729	-1.145879969403822e-13	14.71704689700937	7.01649118368729e-30	0.4425582665135143	12.09548585757148	-3.422465328185353	543.6412528897129	3.328842601179218e-14	-621.1797521012095	-4.450811581213148e-14	262.7109529527609	2.725336078270326e-30	1.858744719356763	8.940141720813699	-5.002064710424747	1193.437796220882	7.307698885616874e-14	-688.808056778121	-2.791920669158075e-14	455.9552470315391	1.709558355478887e-30
1.081	1.150671450886875	10.34251689270604	0.2632641408126801	252.5946421555099	1.546696099987582e-14	-251.3488967701399	-1.072153829417888e-14	175.0960081166853	6.565048776950969e-31	1.327674799540545	7.187172755948268	-0.2632665637065657	841.7915863630114	5.154486858943173e-14	-278.5215965063253	9.473138616662832e-15	-154.7080941747188	-5.800624442387662e-31	0.6195815731189204	14.54964240838308	-1.667354903474916	1491.893188856488	9.135211092014178e-14	-254.4814183062811	-3.394798402001994e-16	5.544126525893972	2.078714498381146e-32	0.2655349599081082	11.3942982716253	-4.300020540540572	543.778129797451	3.329680730513912e-14	-619.6064909961231	-2.121480526269538e-14	346.464062576507	1.299032167974716e-30	2.566837945778388	10.69311068567913	-5.177575752895791	1207.482974565381	7.393700799132095e-14	-665.7349771010981	-2.818052607700874e-14	460.2229164625934	-3.552713678800499e-15
1.0815	1.858776959124952	8.589547927840613	-0.2632641408126802	238.098186343063	1.457930908939111e-14	-269.4526260075023	-1.901848614572289e-14	310.5954493812305	1.164546409149391e-30	1.681721412751358	7.537766548921354	-0.4387776061776095	844.7789403454022	5.172779126405449e-14	-270.6417361568684	3.498138476489161e-15	-57.12893675016667	-2.141992044103324e-31	1.858744719356763	14.54964240838308	-0.7897996911196971	1477.343543757069	9.046120210515511e-14	-258.789542093211	-2.553898792740478e-15	41.70833246808144	1.563811990937958e-31	0.4425582665135143	11.3942982716253	-3.948998455598485	543.8092020587496	3.32987099324062e-14	-616.7172889695569	-2.005433756676457e-14	327.5121868726098	1.227974015507938e-30	1.681721412751357	9.290735513786785	-5.002064710424747	1166.173543466215	7.140753486281132e-14	-689.0378139799201	-3.76113963685408e-14	614.2407165025429	2.303033808709794e-30
1.082	2.035803336184471	9.290735513786785	-0.2632641408126802	242.8081294872825	1.486770992917783e-14	-253.8075271436382	-1.324926941341336e-14	216.376990045424	8.112837689088799e-31	1.327674799540545	10.34251689270604	-0.6142886486486533	877.3366403152138	5.372137541683597e-14	-239.0580358809587	-8.063100411165137e-16	13.16804227435858	4.937225054868546e-32	1.681721412751357	12.44607965054456	-1.140821776061784	1492.783162555261	9.140660609221816e-14	-248.0731115239288	4.102364714922147e-15	-66.99670007349667	-2.511973908532226e-31	0.4425582665135143	12.79667344351765	-3.948998455598485	573.6172592440887	3.512392702344754e-14	-620.2823311762759	-8.447298364855624e-15	137.9548514843131	5.172478451981555e-31	1.681721412751357	8.589547927840613	-5.528597837837879	1158.017267740425	7.090810701478375e-14	-692.4330250081015	-3.747808624819077e-14	612.0635970189032	2.294870918100763e-30
1.0825	2.035803336184471	9.290735513786785	-0.9653018496464939	219.7560837864772	1.345617923011335e-14	-271.2976389453906	-1.396812582710572e-13	424.5211038405438	1.13686837721616e-13	1.504698106145951	8.940141720813699	-0.4387776061776095	863.6113354259795	5.288094288183985e-14	-248.7493121370697	4.538990569570777e-15	-74.12734141355693	-2.779330136192437e-31	1.858744719356763	13.84845482243691	-1.316332818532828	1497.442733200462	9.169192250602046e-14	-243.2302957143867	4.344496975923224e-15	-70.95101998303562	-2.660237157734866e-31	0.7966048797243264	13.49786102946382	-4.65104262548266	568.797349999094	3.482879270199436e-14	-617.1172292823223	-9.005932962133316e-15	147.078046803431	5.514543487706103e-31	1.327674799540545	8.589547927840613	-5.177575752895791	1162.921600198787	7.12084107671381e-14	-692.3512926310566	-3.746379458409186e-14	611.8301964317486	5.684341886080801e-14
1.083	1.504724205005913	10.34251689270604	-0.9653018496464939	277.5124314877639	1.699273554725446e-14	-257.8167520949578	-1.901993369657504e-14	310.619089680673	1.164635046075276e-30	1.150651492935139	6.485985170002095	0.2632665637065656	861.4281643679243	5.274726220942793e-14	-271.9459024673444	5.732881589003564e-15	-93.62506141354422	-3.510377543932003e-31	1.681721412751357	14.19904861540999	-0.2632665637065658	1497.678471924099	9.170635733968737e-14	-228.400237413597	1.152064937848412e-14	-188.1464825042657	-7.054363192729764e-31	-0.08851165330270405	12.79667344351765	-3.597976370656397	553.4505579081373	3.388907271142586e-14	-635.3337638479796	-1.389433495774825e-14	226.9117098484564	8.507826416143785e-31	1.150651492935139	8.940141720813699	-4.65104262548266	1154.949712625472	7.072027343714696e-14	-688.7295295923327	-3.040998916803481e-14	496.632811831255	1.862074794836976e-30
